<?xml version="1.0" encoding="iso-8859-1"?>
<!-- Uploaded to: SVG Repo, www.svgrepo.com, Generator: SVG Repo Mixer Tools -->
<svg version="1.1" id="Layer_1" xmlns="http://www.w3.org/2000/svg" xmlns:xlink="http://www.w3.org/1999/xlink" 
	 viewBox="0 0 512 512" xml:space="preserve">
<circle style="fill:#334D5C;" cx="256" cy="256" r="256"/>
<path style="opacity:0.1;enable-background:new    ;" d="M512,256c0-9.083-0.491-18.053-1.413-26.891L396.816,115.333
	c-0.048-0.048-0.101-0.101-0.149-0.149l-0.075-0.075l-0.011,0.005c-3.648-3.568-8.624-5.781-14.128-5.781h-93.147
	c-11.163,0-20.213,9.051-20.213,20.213v17.824l-32.037-32.037c-0.048-0.048-0.096-0.096-0.144-0.144l-0.075-0.075l-0.005,0.011
	c-3.648-3.573-8.624-5.787-14.133-5.787h-93.152c-11.163,0-20.213,9.051-20.213,20.213v93.147c0,5.493,2.208,10.464,5.765,14.107
	l-0.011,0.005l0.091,0.091c0.059,0.059,0.112,0.112,0.171,0.171l32.027,32.027h-17.829c-11.163,0-20.213,9.051-20.213,20.213v93.141
	c0,5.493,2.208,10.453,5.76,14.096l-0.005,0.011l0.091,0.091c0.059,0.059,0.112,0.112,0.171,0.171l113.765,113.765
	C237.952,511.509,246.917,512,256,512C397.387,512,512,397.387,512,256z"/>
<path style="fill:#E56353;" d="M382.453,109.333h-93.147c-11.163,0-20.213,9.051-20.213,20.213v93.147
	c0,11.163,9.051,20.213,20.213,20.213h93.147c11.163,0,20.213-9.051,20.213-20.213v-93.147
	C402.667,118.384,393.616,109.333,382.453,109.333z"/>
<path style="fill:#FCD462;" d="M222.693,109.333h-93.147c-11.163,0-20.213,9.051-20.213,20.213v93.147
	c0,11.163,9.051,20.213,20.213,20.213h93.147c11.163,0,20.213-9.051,20.213-20.213v-93.147
	C242.907,118.384,233.856,109.333,222.693,109.333z"/>
<path style="fill:#EBF0F3;" d="M382.453,269.093h-93.147c-11.163,0-20.213,9.051-20.213,20.213v93.147
	c0,11.163,9.051,20.213,20.213,20.213h93.147c11.163,0,20.213-9.051,20.213-20.213v-93.147
	C402.667,278.144,393.616,269.093,382.453,269.093z"/>
<path style="fill:#27A2DB;" d="M222.693,269.093h-93.147c-11.163,0-20.213,9.051-20.213,20.213v93.147
	c0,11.163,9.051,20.213,20.213,20.213h93.147c11.163,0,20.213-9.051,20.213-20.213v-93.147
	C242.907,278.144,233.856,269.093,222.693,269.093z"/>
<g>
	<polygon style="fill:#2F4859;" points="168.117,213.893 184.117,213.893 184.117,184.123 213.888,184.123 213.888,168.123 
		184.117,168.123 184.117,138.352 168.117,138.352 168.117,168.123 138.347,168.123 138.347,184.123 168.117,184.123 	"/>
	<rect x="298.112" y="168.123" style="fill:#2F4859;" width="75.541" height="16"/>
	<rect x="138.347" y="346.987" style="fill:#2F4859;" width="75.541" height="16"/>
	<rect x="138.347" y="308.757" style="fill:#2F4859;" width="75.541" height="16"/>
	<polygon style="fill:#2F4859;" points="356.933,303.515 335.883,324.565 314.827,303.515 303.515,314.827 324.565,335.877 
		303.515,356.928 314.827,368.245 335.883,347.189 356.933,368.245 368.245,356.928 347.195,335.877 368.245,314.827 	"/>
</g>
</svg>